<?xml version="1.0" encoding="UTF-8" standalone="no"?>
<!-- Created with Inkscape (http://www.inkscape.org/) -->

<svg
   width="300mm"
   height="300mm"
   viewBox="0 0 300 300"
   version="1.1"
   id="svg1"
   inkscape:version="1.4.2 (f4327f4, 2025-05-13)"
   sodipodi:docname="peon_negro.svg"
   xml:space="preserve"
   xmlns:inkscape="http://www.inkscape.org/namespaces/inkscape"
   xmlns:sodipodi="http://sodipodi.sourceforge.net/DTD/sodipodi-0.dtd"
   xmlns="http://www.w3.org/2000/svg"
   xmlns:svg="http://www.w3.org/2000/svg"><sodipodi:namedview
     id="namedview1"
     pagecolor="#505050"
     bordercolor="#eeeeee"
     borderopacity="1"
     inkscape:showpageshadow="0"
     inkscape:pageopacity="0"
     inkscape:pagecheckerboard="false"
     inkscape:deskcolor="#505050"
     inkscape:document-units="mm"
     showgrid="true"
     inkscape:zoom="0.70710678"
     inkscape:cx="260.9224"
     inkscape:cy="506.99556"
     inkscape:window-width="1920"
     inkscape:window-height="1017"
     inkscape:window-x="-8"
     inkscape:window-y="-8"
     inkscape:window-maximized="1"
     inkscape:current-layer="layer1"><inkscape:grid
       id="grid1"
       units="mm"
       originx="0"
       originy="0"
       spacingx="0.99999998"
       spacingy="1"
       empcolor="#0099e5"
       empopacity="0.30196078"
       color="#0099e5"
       opacity="0.14901961"
       empspacing="5"
       enabled="true"
       visible="true" /></sodipodi:namedview><defs
     id="defs1" /><g
     inkscape:label="Capa 1"
     inkscape:groupmode="layer"
     id="layer1"><path
       style="opacity:0.5;fill:#000000;stroke-width:2"
       d="m 299,1012.883 c -18.7,-0.8146 -38.5,-2.5242 -44,-3.7991 -23.86822,-5.5326 -47.48421,-30.1724 -54.73801,-57.11094 -3.68826,-13.69714 5.3185,-39.8558 18.89828,-54.887 15.82201,-17.51308 32.02656,-25.20682 58.9594,-27.99324 23.44311,-2.4254 39.14212,-10.0462 59.10964,-28.69364 C 363.48956,815.8749 387.61227,779.21326 408.554,732 c 12.06964,-27.2111 31.27172,-84.01706 39.2114,-116 9.59946,-38.66884 9.53188,-35.55254 0.97618,-45.02268 -4.13164,-4.57322 -17.9137,-15.3741 -30.62682,-24.00192 C 348.14102,499.48728 311.65038,430.898 311.79312,347.129 c 0.1081,-63.4385 22.11014,-118.78749 65.171,-163.94607 C 424.07324,133.77887 485.95118,107 553,107 654.08388,107 744.6233,168.83171 779.62378,261.76724 790.778,291.38465 794.6862,313.59136 794.624,347 c -0.0963,51.7107 -12.53306,92.45832 -41.49106,135.94034 -19.86274,29.825 -59.70562,65.97788 -89.48508,81.19752 -5.14368,2.62882 -9.87692,6.4331 -10.5183,8.45394 -3.88258,12.23294 19.89046,101.20818 40.09958,150.08054 35.77744,86.5217 84.95674,140.87434 132.35734,146.2805 8.62998,0.98426 18.32846,2.41222 21.5522,3.17322 21.46294,5.06662 49.0163,29.41606 56.8505,50.23988 9.8489,26.17904 -1.34392,55.29478 -29.34476,76.3342 -13.87004,10.42176 -24.41984,12.19726 -85.32808,14.36036 -59.30288,2.1062 -441.06697,1.968 -490.31634,-0.1775 z"
       id="path2"
       transform="scale(0.26458333)" /><path
       style="opacity:0.5;fill:#000000;stroke-width:2"
       d="m 299,1012.883 c -18.7,-0.8146 -38.5,-2.5242 -44,-3.7991 -23.86822,-5.5326 -47.48421,-30.1724 -54.73801,-57.11094 -3.7883,-14.06868 5.4856,-40.27926 19.71288,-55.71404 C 235.58467,879.32428 257.98093,869 279.1071,869 c 4.54668,0 13.313,-1.73618 19.4807,-3.85818 57.67541,-19.84326 116.01176,-117.59436 149.29696,-250.169 C 452.34814,597.19524 456,581.8313 456,580.83074 456,576.28422 439.26402,561.32846 418.11476,546.9754 371.10238,515.07016 341.08294,476.30648 323.65433,425 315.35926,400.58092 311.84902,377.70848 311.83711,348 311.80986,280.02951 336.65292,221.41598 385.21622,174.87279 431.66058,130.36042 489.37718,107 552.90954,107 c 67.09818,0 127.88342,25.70504 175.38904,74.16906 31.62448,32.26249 52.81896,72.67131 62.85148,119.83094 5.1549,24.2315 4.8494,68.46312 -0.64922,94 -7.79492,36.2014 -24.30292,72.46806 -45.51838,100 -18.407,23.88732 -57.02346,56.71296 -81.3346,69.13786 -5.14368,2.62882 -9.87692,6.4331 -10.5183,8.45394 -2.64846,8.34456 8.4039,57.30318 23.11856,102.4082 23.78054,72.89476 52.07724,124.4556 87.95546,160.26802 21.48612,21.4467 39.51104,31.2442 62.1529,33.78338 20.30394,2.277 24.888,3.53866 38.20604,10.51544 25.96072,13.59972 44.66616,42.19034 43.00722,65.73508 -1.94828,27.6513 -28.51636,58.07198 -55.56974,63.62788 -6.05,1.2425 -34.4,3.0928 -63,4.1119 -60.37032,2.1511 -439.79839,2.0283 -490,-0.1587 z"
       id="path3"
       transform="scale(0.26458333)" /><path
       style="opacity:0.5;fill:#000000;stroke-width:2"
       d="m 299,1012.9839 c -18.7,-0.8701 -38.5,-2.6251 -44,-3.9 -23.86822,-5.5326 -47.48421,-30.1724 -54.73801,-57.11094 -3.68826,-13.69714 5.3185,-39.8558 18.89828,-54.887 16.08504,-17.80422 31.56917,-25.20292 58.44656,-27.9272 58.29819,-5.90908 111.55448,-73.56968 152.54405,-193.80288 C 438.3851,651.20274 456,586.78852 456,580.83074 456,576.36854 439.98856,562.07664 418.4266,547.2925 370.74619,514.60002 341.09297,476.33602 323.65433,425 307.20581,376.57872 307.76224,314.87524 325.07916,267 345.86965,209.52151 388.66,160.96504 443.13364,133.03733 c 44.3884,-22.75718 99.86226,-31.21155 150.69932,-22.96699 93.4829,15.1607 170.70732,86.21238 194.4075,178.86806 17.74478,69.37304 1.14744,148.43534 -43.258,206.0616 -18.407,23.88732 -57.02346,56.71296 -81.3346,69.13786 -5.14368,2.62882 -9.87692,6.4331 -10.5183,8.45394 -2.73458,8.61588 7.85816,55.21086 23.25882,102.31014 24.3847,74.57478 51.53064,124.14804 87.8152,160.36608 21.89162,21.85146 39.6375,31.36798 63.16248,33.8719 27.91336,2.97102 42.82202,10.1374 60.57868,29.1193 27.30642,29.19066 26.18904,61.87482 -3.13394,91.67006 -14.12282,14.35032 -23.57514,18.45902 -48.8108,21.21732 -25.06696,2.7399 -483.86725,4.3096 -537,1.8373 z"
       id="path4"
       transform="scale(0.26458333)" /><path
       style="opacity:0.5;fill:#000000;stroke-width:2"
       d="m 299,1012.9839 c -18.7,-0.8701 -38.5,-2.6251 -44,-3.9 -23.92203,-5.5451 -47.48316,-30.16848 -54.77357,-57.24302 -3.85962,-14.33352 4.79127,-39.10078 19.2458,-55.10022 15.73889,-17.42106 30.85764,-24.60524 58.30872,-27.70726 25.32814,-2.86214 42.28778,-11.79298 64.34312,-33.88266 C 377.23211,799.98802 408.9848,741.20274 432.95022,667 439.84842,645.64148 456,585.34438 456,580.9505 456,576.37342 440.20822,562.22726 418.4266,547.2925 361.14516,508.01698 326.27905,455.39704 314.8668,391 c -3.03466,-17.12402 -4.1202,-61.3924 -1.84971,-75.43166 9.43752,-58.35551 32.42966,-102.71569 73.65065,-142.09881 35.77726,-34.1821 77.41726,-54.90564 128.06088,-63.7338 22.2507,-3.87872 68.38758,-2.71543 91.27138,2.30132 77.80708,17.05742 145.77056,75.62487 173.53582,149.5443 11.3513,30.22056 15.02898,50.50291 15.12586,83.41865 0.15304,52.00004 -12.37214,94.52574 -40.3509,137 -18.39896,27.93128 -62.19846,67.83838 -89.66292,81.6947 -5.69368,2.87256 -10.87692,6.87626 -11.5183,8.8971 -4.05074,12.76272 20.38864,102.24368 42.03936,153.92062 28.5845,68.22682 67.55036,117.94822 106.61714,136.04604 6.99544,3.24068 16.83562,5.59736 28,6.7059 23.75838,2.35904 41.41588,11.09676 57.78368,28.594 27.70612,29.61792 26.73266,62.10436 -2.75894,92.07092 -14.12282,14.35032 -23.57514,18.45902 -48.8108,21.21732 -25.06696,2.7399 -483.86725,4.3096 -537,1.8373 z"
       id="path5"
       transform="scale(0.26458333)" /><path
       style="opacity:0.5;fill:#000000;stroke-width:2"
       d="m 299,1012.9839 c -18.7,-0.8701 -38.5,-2.6251 -44,-3.9 -23.65061,-5.4822 -46.36294,-28.63042 -54.08979,-55.12784 -2.58239,-8.8557 -2.574,-11.40648 0.0709,-21.561 5.59146,-21.46704 16.66373,-37.4544 34.38251,-49.64526 11.71522,-8.06028 22.11008,-11.42164 42.41731,-13.7164 25.39628,-2.86984 42.32733,-11.80088 64.23307,-33.88266 34.52669,-34.80414 63.52634,-87.427 87.86448,-159.43916 C 438.52692,650.12244 456,586.73528 456,580.9505 c 0,-4.57708 -15.79178,-18.72324 -37.5734,-33.658 -57.31238,-39.29672 -92.24404,-91.9847 -103.56078,-156.20236 -3.03435,-17.21868 -4.11808,-61.48958 -1.84873,-75.5218 9.43752,-58.35551 32.42966,-102.71569 73.65065,-142.09881 35.77168,-34.17677 77.37696,-54.88544 128.06088,-63.74123 26.60924,-4.64932 71.47756,-2.81769 97.77028,3.99121 42.49866,11.00567 81.82592,33.43658 112.54496,64.19177 C 771.2397,224.16149 794.752,280.8756 794.72938,346 c -0.0178,51.19906 -12.74512,94.01482 -40.42706,136 -18.40224,27.91068 -61.71382,67.57816 -88.61156,81.1561 -6.26536,3.16274 -11.9171,7.40634 -12.55946,9.4302 -2.9182,9.19448 10.84004,66.48108 27.99428,116.56256 29.58422,86.37066 73.14118,149.91926 117.88664,171.9939 8.68114,4.28274 17.00034,6.47602 30,7.90924 24.73962,2.72756 42.19442,11.31414 58.55752,28.80636 27.64602,29.55368 26.79814,62.0378 -2.39344,91.69954 -14.49762,14.7311 -23.8005,18.8151 -49.1763,21.5887 -25.06696,2.7399 -483.86725,4.3096 -537,1.8373 z"
       id="path6"
       transform="scale(0.26458333)" /></g></svg>
